<svg id="visual" viewBox="0 0 1600 900" width="1600" height="900" xmlns="http://www.w3.org/2000/svg" xmlns:xlink="http://www.w3.org/1999/xlink" version="1.1"><path d="M0 127L145 127L145 154L291 154L291 253L436 253L436 217L582 217L582 262L727 262L727 145L873 145L873 280L1018 280L1018 118L1164 118L1164 172L1309 172L1309 334L1455 334L1455 154L1600 154L1600 172L1600 0L1600 0L1455 0L1455 0L1309 0L1309 0L1164 0L1164 0L1018 0L1018 0L873 0L873 0L727 0L727 0L582 0L582 0L436 0L436 0L291 0L291 0L145 0L145 0L0 0Z" fill="#fa7268"></path><path d="M0 244L145 244L145 208L291 208L291 388L436 388L436 325L582 325L582 361L727 361L727 199L873 199L873 433L1018 433L1018 208L1164 208L1164 253L1309 253L1309 415L1455 415L1455 289L1600 289L1600 307L1600 170L1600 152L1455 152L1455 332L1309 332L1309 170L1164 170L1164 116L1018 116L1018 278L873 278L873 143L727 143L727 260L582 260L582 215L436 215L436 251L291 251L291 152L145 152L145 125L0 125Z" fill="#ea5e66"></path><path d="M0 379L145 379L145 343L291 343L291 604L436 604L436 577L582 577L582 541L727 541L727 307L873 307L873 514L1018 514L1018 442L1164 442L1164 343L1309 343L1309 595L1455 595L1455 496L1600 496L1600 469L1600 305L1600 287L1455 287L1455 413L1309 413L1309 251L1164 251L1164 206L1018 206L1018 431L873 431L873 197L727 197L727 359L582 359L582 323L436 323L436 386L291 386L291 206L145 206L145 242L0 242Z" fill="#d84a64"></path><path d="M0 541L145 541L145 478L291 478L291 739L436 739L436 667L582 667L582 703L727 703L727 496L873 496L873 658L1018 658L1018 559L1164 559L1164 460L1309 460L1309 703L1455 703L1455 568L1600 568L1600 550L1600 467L1600 494L1455 494L1455 593L1309 593L1309 341L1164 341L1164 440L1018 440L1018 512L873 512L873 305L727 305L727 539L582 539L582 575L436 575L436 602L291 602L291 341L145 341L145 377L0 377Z" fill="#c53762"></path><path d="M0 901L145 901L145 901L291 901L291 901L436 901L436 901L582 901L582 901L727 901L727 901L873 901L873 901L1018 901L1018 901L1164 901L1164 901L1309 901L1309 901L1455 901L1455 901L1600 901L1600 901L1600 548L1600 566L1455 566L1455 701L1309 701L1309 458L1164 458L1164 557L1018 557L1018 656L873 656L873 494L727 494L727 701L582 701L582 665L436 665L436 737L291 737L291 476L145 476L145 539L0 539Z" fill="#b0235f"></path></svg>