<svg xmlns="http://www.w3.org/2000/svg" version="1.1" xmlns:xlink="http://www.w3.org/1999/xlink" xmlns:svgjs="http://svgjs.dev/svgjs" width="1000" height="1000" viewBox="0 0 1000 1000"><rect width="1000" height="1000" fill="#ffffff"></rect><g transform="matrix(0.7,0,0,0.7,149.57575757575756,282.1265587044535)"><svg viewBox="0 0 396 247" data-background-color="#ffffff" preserveAspectRatio="xMidYMid meet" height="623" width="1000" xmlns="http://www.w3.org/2000/svg" xmlns:xlink="http://www.w3.org/1999/xlink"><g id="tight-bounds" transform="matrix(1,0,0,1,0.2400000000000091,-0.09999999999999432)"><svg viewBox="0 0 395.52 247.2" height="247.2" width="395.52"><g><svg></svg></g><g><svg viewBox="0 0 395.52 247.2" height="247.2" width="395.52"><mask id="b82bee05-286c-4a1c-afd3-2d1a170e04d8"><rect width="395.52" height="247.2" fill="white"></rect><g transform="matrix(1,0,0,1,2.842170943040401e-14,96.32050281177638)" id="clone"><svg viewBox="0 0 395.5199999999999 54.558994376447224" height="54.558994376447224" width="395.5199999999999"><g><svg viewBox="0 0 395.5199999999999 54.558994376447224" height="54.558994376447224" width="395.5199999999999"><g><svg viewBox="0 0 395.5199999999999 54.558994376447224" height="54.558994376447224" width="395.5199999999999"><g><svg viewBox="0 0 395.5199999999999 54.558994376447224" height="54.558994376447224" width="395.5199999999999"><g id="SvgjsG1066"><svg viewBox="0 0 395.5199999999999 54.558994376447224" height="54.558994376447224" width="395.5199999999999" id="SvgjsSvg1065"><g><svg viewBox="0 0 395.5199999999999 54.558994376447224" height="54.558994376447224" width="395.5199999999999"><g transform="matrix(1,0,0,1,0,0)"><svg width="395.5199999999999" viewBox="-2.7999999970197678 -38.900001525878906 303.2799987792969 42.70000076293945" height="54.558994376447224" data-palette-color="#ffa458"><path d="M10.9 0L0.2 0 0.2-3.45Q1.6-3.45 2.45-4.25 3.3-5.05 3.88-6.35 4.45-7.65 5-9.15L5-9.15 14.75-35.9 18.25-35.9 28.9-8.65Q29.2-7.9 29.7-6.38 30.2-4.85 30.3-3.7L30.3-3.7Q31.15-3.8 31.93-3.83 32.7-3.85 33.2-3.85L33.2-3.85 33.2 0 19.75 0 19.75-3.3Q21.15-3.3 21.68-3.88 22.2-4.45 22.15-5.45 22.1-6.45 21.6-7.7L21.6-7.7 20.6-10.45 9.75-10.25 8.95-7.9Q8.7-7.25 8.22-5.98 7.75-4.7 7.35-3.85L7.35-3.85Q8.15-3.95 9.28-3.98 10.4-4 10.9-4L10.9-4 10.9 0ZM13.25-20.5L11-14 19.35-14 17.05-20.25Q16.4-22.05 15.9-23.88 15.4-25.7 15.15-27.1L15.15-27.1 15.1-27.1Q14.9-26.25 14.5-24.55 14.1-22.85 13.25-20.5L13.25-20.5ZM50.75 0L35.9 0 35.9-3.3Q37.05-3.35 37.82-3.6 38.6-3.85 39.02-4.75 39.45-5.65 39.45-7.65L39.45-7.65 39.45-26.8Q39.45-28.15 39.52-29.4 39.6-30.65 39.65-31.3L39.65-31.3Q38.85-31.25 37.65-31.23 36.45-31.2 35.9-31.15L35.9-31.15 35.9-35Q39.45-35.05 43-35.05 46.55-35.05 50.1-35.1L50.1-35.1Q54.5-35.15 57.75-34.1 61-33.05 62.75-30.7 64.5-28.35 64.4-24.35L64.4-24.35Q64.35-22.25 63.37-20.35 62.4-18.45 60.47-17 58.55-15.55 55.6-14.7L55.6-14.7Q56.55-14.3 57.47-13.4 58.4-12.5 59.05-11.5L59.05-11.5 61.4-8Q62.5-6.3 63.35-5.3 64.2-4.3 65.05-3.83 65.9-3.35 67-3.3L67-3.3 67 0 58.75 0Q57.85-0.65 56.97-1.88 56.1-3.1 55.1-4.7L55.1-4.7 51.4-10.7Q50.75-11.7 50.27-12.4 49.8-13.1 49.3-13.6L49.3-13.6Q48.5-13.6 47.95-13.6 47.4-13.6 46.7-13.6L46.7-13.6 46.7-8.25Q46.7-6.85 46.65-5.6 46.6-4.35 46.5-3.7L46.5-3.7Q47.05-3.75 47.9-3.78 48.75-3.8 49.57-3.83 50.4-3.85 50.75-3.85L50.75-3.85 50.75 0ZM49.1-17.2L49.1-17.2Q51.9-17.2 53.6-18.03 55.3-18.85 56.07-20.53 56.85-22.2 56.85-24.75L56.85-24.75Q56.85-27.15 56.1-28.53 55.35-29.9 54.22-30.58 53.1-31.25 51.95-31.43 50.8-31.6 50.05-31.6L50.05-31.6Q49-31.6 48.25-31.35 47.5-31.1 47.1-30.25 46.7-29.4 46.7-27.65L46.7-27.65 46.7-17.4Q47.25-17.35 47.85-17.28 48.45-17.2 49.1-17.2ZM99-23.8L95.75-23.8Q95.1-27.95 92.97-30.05 90.85-32.15 87.35-32.2L87.35-32.2Q84.75-32.2 82.8-31 80.85-29.8 79.57-27.8 78.3-25.8 77.67-23.25 77.05-20.7 77.05-18L77.05-18Q77.05-13.7 78.27-10.38 79.5-7.05 81.85-5.15 84.2-3.25 87.55-3.25L87.55-3.25Q90.7-3.25 93.8-4.88 96.9-6.5 99-9.4L99-9.4 101.4-7.2Q98.95-3.85 96.25-2.13 93.55-0.4 90.97 0.2 88.4 0.8 86.35 0.8L86.35 0.8Q82.5 0.8 79.35-0.58 76.2-1.95 73.92-4.38 71.65-6.8 70.42-10.03 69.2-13.25 69.2-17L69.2-17Q69.2-20.4 70.3-23.75 71.4-27.1 73.57-29.83 75.75-32.55 79.05-34.18 82.35-35.8 86.7-35.8L86.7-35.8Q88.65-35.8 90.97-35.18 93.3-34.55 95.35-33.35L95.35-33.35 95.15-35.45 99-35.45 99-23.8ZM118.69 0L104.34 0 104.34-3.3Q105.49-3.35 106.27-3.6 107.04-3.85 107.47-4.75 107.89-5.65 107.89-7.65L107.89-7.65 107.89-26.8Q107.89-28.15 107.97-29.4 108.04-30.65 108.09-31.3L108.09-31.3Q107.29-31.25 106.09-31.23 104.89-31.2 104.34-31.15L104.34-31.15 104.34-35 118.69-35 118.69-31.7Q117.59-31.65 116.79-31.4 115.99-31.15 115.57-30.28 115.14-29.4 115.14-27.35L115.14-27.35 115.14-19.55 128.89-19.55 128.89-26.8Q128.89-28.15 128.94-29.4 128.99-30.65 129.09-31.3L129.09-31.3Q128.29-31.25 127.09-31.23 125.89-31.2 125.34-31.15L125.34-31.15 125.34-35 139.69-35 139.69-31.7Q138.59-31.65 137.79-31.4 136.99-31.15 136.57-30.28 136.14-29.4 136.14-27.35L136.14-27.35 136.14-8.2Q136.14-6.85 136.09-5.6 136.04-4.35 135.94-3.7L135.94-3.7Q136.74-3.8 137.97-3.83 139.19-3.85 139.69-3.85L139.69-3.85 139.69 0 125.34 0 125.34-3.3Q126.49-3.35 127.27-3.6 128.04-3.85 128.47-4.75 128.89-5.65 128.89-7.65L128.89-7.65 128.89-15.75 115.14-15.6 115.14-8.2Q115.14-6.85 115.09-5.6 115.04-4.35 114.94-3.7L114.94-3.7Q115.74-3.8 116.97-3.83 118.19-3.85 118.69-3.85L118.69-3.85 118.69 0ZM159.04-35L159.04-31.7Q157.94-31.65 157.14-31.4 156.34-31.15 155.91-30.28 155.49-29.4 155.49-27.35L155.49-27.35 155.49-8.2Q155.49-6.85 155.44-5.6 155.39-4.35 155.29-3.7L155.29-3.7Q156.09-3.8 157.31-3.83 158.54-3.85 159.04-3.85L159.04-3.85 159.04 0 144.69 0 144.69-3.3Q145.84-3.35 146.62-3.6 147.39-3.85 147.81-4.75 148.24-5.65 148.24-7.65L148.24-7.65 148.24-26.8Q148.24-28.15 148.31-29.4 148.39-30.65 148.44-31.3L148.44-31.3Q147.64-31.25 146.44-31.23 145.24-31.2 144.69-31.15L144.69-31.15 144.69-35 159.04-35ZM193.19-23.7L189.89-23.7Q189.89-26.4 189.14-28.18 188.39-29.95 187.01-30.83 185.64-31.7 183.74-31.65L183.74-31.65 181.34-31.65 181.34-8.2Q181.34-6.85 181.29-5.6 181.24-4.35 181.14-3.7L181.14-3.7Q181.99-3.8 183.31-3.83 184.64-3.85 185.14-3.85L185.14-3.85 185.14 0 170.54 0 170.54-3.3Q171.69-3.35 172.46-3.6 173.24-3.85 173.66-4.75 174.09-5.65 174.09-7.65L174.09-7.65 174.09-31.6 171.79-31.6Q168.94-31.55 167.29-29.65 165.64-27.75 165.64-23.7L165.64-23.7 162.34-23.7 162.59-35 192.89-35 193.19-23.7ZM216.84-12.05L213.53-12.05Q213.53-14.15 212.88-15.08 212.23-16 211.11-16.25 209.98-16.5 208.63-16.45L208.63-16.45 207.34-16.4 207.34-8.2Q207.34-6.85 207.28-5.65 207.23-4.45 207.13-3.8L207.13-3.8 213.84-3.8Q215.34-3.8 216.74-4.48 218.13-5.15 219.03-6.73 219.94-8.3 219.94-11L219.94-11 223.19-11 222.94 0 196.53 0 196.53-3.3Q197.69-3.35 198.46-3.6 199.23-3.85 199.66-4.75 200.09-5.65 200.09-7.65L200.09-7.65 200.09-26.8Q200.09-28.15 200.16-29.4 200.23-30.65 200.28-31.3L200.28-31.3Q199.48-31.25 198.28-31.23 197.09-31.2 196.53-31.15L196.53-31.15 196.53-35 221.53-35 221.84-25.3 218.53-25.3Q218.53-28.05 217.59-29.45 216.63-30.85 215.24-31.33 213.84-31.8 212.48-31.75L212.48-31.75 210.69-31.7Q209.63-31.7 208.88-31.43 208.13-31.15 207.73-30.23 207.34-29.3 207.34-27.35L207.34-27.35 207.34-19.85 213.19-19.85 212.98-24.2 216.84-24.2 216.84-12.05ZM256.78-23.8L253.53-23.8Q252.88-27.95 250.76-30.05 248.63-32.15 245.13-32.2L245.13-32.2Q242.53-32.2 240.58-31 238.63-29.8 237.36-27.8 236.08-25.8 235.46-23.25 234.83-20.7 234.83-18L234.83-18Q234.83-13.7 236.06-10.38 237.28-7.05 239.63-5.15 241.98-3.25 245.33-3.25L245.33-3.25Q248.48-3.25 251.58-4.88 254.68-6.5 256.78-9.4L256.78-9.4 259.18-7.2Q256.73-3.85 254.03-2.13 251.33-0.4 248.76 0.2 246.18 0.8 244.13 0.8L244.13 0.8Q240.28 0.8 237.13-0.58 233.98-1.95 231.71-4.38 229.43-6.8 228.21-10.03 226.98-13.25 226.98-17L226.98-17Q226.98-20.4 228.08-23.75 229.18-27.1 231.36-29.83 233.53-32.55 236.83-34.18 240.13-35.8 244.48-35.8L244.48-35.8Q246.43-35.8 248.76-35.18 251.08-34.55 253.13-33.35L253.13-33.35 252.93-35.45 256.78-35.45 256.78-23.8ZM276.48 0L262.13 0 262.13-3.3Q263.28-3.35 264.06-3.6 264.83-3.85 265.25-4.75 265.68-5.65 265.68-7.65L265.68-7.65 265.68-26.8Q265.68-28.15 265.75-29.4 265.83-30.65 265.88-31.3L265.88-31.3Q265.08-31.25 263.88-31.23 262.68-31.2 262.13-31.15L262.13-31.15 262.13-35 276.48-35 276.48-31.7Q275.38-31.65 274.58-31.4 273.78-31.15 273.36-30.28 272.93-29.4 272.93-27.35L272.93-27.35 272.93-19.55 286.68-19.55 286.68-26.8Q286.68-28.15 286.73-29.4 286.78-30.65 286.88-31.3L286.88-31.3Q286.08-31.25 284.88-31.23 283.68-31.2 283.13-31.15L283.13-31.15 283.13-35 297.48-35 297.48-31.7Q296.38-31.65 295.58-31.4 294.78-31.15 294.36-30.28 293.93-29.4 293.93-27.35L293.93-27.35 293.93-8.2Q293.93-6.85 293.88-5.6 293.83-4.35 293.73-3.7L293.73-3.7Q294.53-3.8 295.75-3.83 296.98-3.85 297.48-3.85L297.48-3.85 297.48 0 283.13 0 283.13-3.3Q284.28-3.35 285.06-3.6 285.83-3.85 286.25-4.75 286.68-5.65 286.68-7.65L286.68-7.65 286.68-15.75 272.93-15.6 272.93-8.2Q272.93-6.85 272.88-5.6 272.83-4.35 272.73-3.7L272.73-3.7Q273.53-3.8 274.75-3.83 275.98-3.85 276.48-3.85L276.48-3.85 276.48 0Z" opacity="1" transform="matrix(1,0,0,1,0,0)" fill="black" class="wordmark-text-0" id="SvgjsPath1064" stroke-width="5" stroke="black" stroke-linejoin="round"></path></svg></g></svg></g></svg></g></svg></g><g></g></svg></g></svg></g></svg></g></mask><g mask="url(#b82bee05-286c-4a1c-afd3-2d1a170e04d8)"><g><path xmlns="http://www.w3.org/2000/svg" d="M157.822 247.2h-73.678v-23.756c6.427 0 11.591-1.836 15.493-5.509 3.902-3.672 7.184-8.492 9.847-14.46 2.617-5.968 5.187-12.394 7.712-19.28v0l67.137-184.195h24.1l73.334 187.638c1.377 3.443 3.213 8.653 5.508 15.631 2.295 7.024 3.672 13.175 4.132 18.454v0c3.902-0.459 7.643-0.757 11.224-0.896 3.535-0.092 6.45-0.138 8.745-0.137v0 26.51h-92.614v-22.723c6.427 0 10.857-1.331 13.289-3.994 2.387-2.617 3.466-6.22 3.237-10.811-0.23-4.591-1.492-9.755-3.788-15.493v0l-6.885-18.936-74.711 1.378-5.509 16.181c-1.148 2.984-2.823 7.391-5.027 13.221-2.158 5.876-4.154 10.765-5.99 14.667v0c3.672-0.459 8.102-0.757 13.289-0.895 5.141-0.092 8.86-0.138 11.155-0.138v0zM174.004 106.041l-15.493 44.758h57.496l-15.837-43.036c-2.984-8.263-5.623-16.595-7.919-24.996-2.295-8.355-4.017-15.746-5.164-22.172v0h-0.344c-0.918 3.902-2.295 9.755-4.132 17.559-1.836 7.804-4.705 17.1-8.607 27.887z" fill="#000000" fill-rule="nonzero" stroke="none" stroke-width="1" stroke-linecap="butt" stroke-linejoin="miter" stroke-miterlimit="10" stroke-dasharray="" stroke-dashoffset="0" font-family="none" font-weight="none" font-size="none" text-anchor="none" style="mix-blend-mode: normal" data-fill-palette-color="tertiary"></path></g></g><g transform="matrix(1,0,0,1,2.842170943040401e-14,96.32050281177638)"><svg viewBox="0 0 395.5199999999999 54.558994376447224" height="54.558994376447224" width="395.5199999999999"><g><svg viewBox="0 0 395.5199999999999 54.558994376447224" height="54.558994376447224" width="395.5199999999999"><g><svg viewBox="0 0 395.5199999999999 54.558994376447224" height="54.558994376447224" width="395.5199999999999"><g><svg viewBox="0 0 395.5199999999999 54.558994376447224" height="54.558994376447224" width="395.5199999999999"><g id="textblocktransform"><svg viewBox="0 0 395.5199999999999 54.558994376447224" height="54.558994376447224" width="395.5199999999999" id="textblock"><g><svg viewBox="0 0 395.5199999999999 54.558994376447224" height="54.558994376447224" width="395.5199999999999"><g transform="matrix(1,0,0,1,0,0)"><svg width="395.5199999999999" viewBox="-2.7999999970197678 -38.900001525878906 303.2799987792969 42.70000076293945" height="54.558994376447224" data-palette-color="#ffa458"><path d="M10.9 0L0.2 0 0.2-3.45Q1.6-3.45 2.45-4.25 3.3-5.05 3.88-6.35 4.45-7.65 5-9.15L5-9.15 14.75-35.9 18.25-35.9 28.9-8.65Q29.2-7.9 29.7-6.38 30.2-4.85 30.3-3.7L30.3-3.7Q31.15-3.8 31.93-3.83 32.7-3.85 33.2-3.85L33.2-3.85 33.2 0 19.75 0 19.75-3.3Q21.15-3.3 21.68-3.88 22.2-4.45 22.15-5.45 22.1-6.45 21.6-7.7L21.6-7.7 20.6-10.45 9.75-10.25 8.95-7.9Q8.7-7.25 8.22-5.98 7.75-4.7 7.35-3.85L7.35-3.85Q8.15-3.95 9.28-3.98 10.4-4 10.9-4L10.9-4 10.9 0ZM13.25-20.5L11-14 19.35-14 17.05-20.25Q16.4-22.05 15.9-23.88 15.4-25.7 15.15-27.1L15.15-27.1 15.1-27.1Q14.9-26.25 14.5-24.55 14.1-22.85 13.25-20.5L13.25-20.5ZM50.75 0L35.9 0 35.9-3.3Q37.05-3.35 37.82-3.6 38.6-3.85 39.02-4.75 39.45-5.65 39.45-7.65L39.45-7.65 39.45-26.8Q39.45-28.15 39.52-29.4 39.6-30.65 39.65-31.3L39.65-31.3Q38.85-31.25 37.65-31.23 36.45-31.2 35.9-31.15L35.9-31.15 35.9-35Q39.45-35.05 43-35.05 46.55-35.05 50.1-35.1L50.1-35.1Q54.5-35.15 57.75-34.1 61-33.05 62.75-30.7 64.5-28.35 64.4-24.35L64.4-24.35Q64.35-22.25 63.37-20.35 62.4-18.45 60.47-17 58.55-15.55 55.6-14.7L55.6-14.7Q56.55-14.3 57.47-13.4 58.4-12.5 59.05-11.5L59.05-11.5 61.4-8Q62.5-6.3 63.35-5.3 64.2-4.3 65.05-3.83 65.9-3.35 67-3.3L67-3.3 67 0 58.75 0Q57.85-0.65 56.97-1.88 56.1-3.1 55.1-4.7L55.1-4.7 51.4-10.7Q50.75-11.7 50.27-12.4 49.8-13.1 49.3-13.6L49.3-13.6Q48.5-13.6 47.95-13.6 47.4-13.6 46.7-13.6L46.7-13.6 46.7-8.25Q46.7-6.85 46.65-5.6 46.6-4.35 46.5-3.7L46.5-3.7Q47.05-3.75 47.9-3.78 48.75-3.8 49.57-3.83 50.4-3.85 50.75-3.85L50.75-3.85 50.75 0ZM49.1-17.2L49.1-17.2Q51.9-17.2 53.6-18.03 55.3-18.85 56.07-20.53 56.85-22.2 56.85-24.75L56.85-24.75Q56.85-27.15 56.1-28.53 55.35-29.9 54.22-30.58 53.1-31.25 51.95-31.43 50.8-31.6 50.05-31.6L50.05-31.6Q49-31.6 48.25-31.35 47.5-31.1 47.1-30.25 46.7-29.4 46.7-27.65L46.7-27.65 46.7-17.4Q47.25-17.35 47.85-17.28 48.45-17.2 49.1-17.2ZM99-23.8L95.75-23.8Q95.1-27.95 92.97-30.05 90.85-32.15 87.35-32.2L87.35-32.2Q84.75-32.2 82.8-31 80.85-29.8 79.57-27.8 78.3-25.8 77.67-23.25 77.05-20.7 77.05-18L77.05-18Q77.05-13.7 78.27-10.38 79.5-7.05 81.85-5.15 84.2-3.25 87.55-3.25L87.55-3.25Q90.7-3.25 93.8-4.88 96.9-6.5 99-9.4L99-9.4 101.4-7.2Q98.95-3.85 96.25-2.13 93.55-0.4 90.97 0.2 88.4 0.8 86.35 0.8L86.35 0.8Q82.5 0.8 79.35-0.58 76.2-1.95 73.92-4.38 71.65-6.8 70.42-10.03 69.2-13.25 69.2-17L69.2-17Q69.2-20.4 70.3-23.75 71.4-27.1 73.57-29.83 75.75-32.55 79.05-34.18 82.35-35.8 86.7-35.8L86.7-35.8Q88.65-35.8 90.97-35.18 93.3-34.55 95.35-33.35L95.35-33.35 95.15-35.45 99-35.45 99-23.8ZM118.69 0L104.34 0 104.34-3.3Q105.49-3.35 106.27-3.6 107.04-3.85 107.47-4.75 107.89-5.65 107.89-7.65L107.89-7.65 107.89-26.8Q107.89-28.15 107.97-29.4 108.04-30.65 108.09-31.3L108.09-31.3Q107.29-31.25 106.09-31.23 104.89-31.2 104.34-31.15L104.34-31.15 104.34-35 118.69-35 118.69-31.7Q117.59-31.65 116.79-31.4 115.99-31.15 115.57-30.28 115.14-29.4 115.14-27.35L115.14-27.35 115.14-19.55 128.89-19.55 128.89-26.8Q128.89-28.15 128.94-29.4 128.99-30.65 129.09-31.3L129.09-31.3Q128.29-31.25 127.09-31.23 125.89-31.2 125.34-31.15L125.34-31.15 125.34-35 139.69-35 139.69-31.7Q138.59-31.65 137.79-31.4 136.99-31.15 136.57-30.28 136.14-29.4 136.14-27.35L136.14-27.35 136.14-8.2Q136.14-6.85 136.09-5.6 136.04-4.35 135.94-3.7L135.94-3.7Q136.74-3.8 137.97-3.83 139.19-3.85 139.69-3.85L139.69-3.85 139.69 0 125.34 0 125.34-3.3Q126.49-3.35 127.27-3.6 128.04-3.85 128.47-4.75 128.89-5.65 128.89-7.65L128.89-7.65 128.89-15.75 115.14-15.6 115.14-8.2Q115.14-6.85 115.09-5.6 115.04-4.35 114.94-3.7L114.94-3.7Q115.74-3.8 116.97-3.83 118.19-3.85 118.69-3.85L118.69-3.85 118.69 0ZM159.04-35L159.04-31.7Q157.94-31.65 157.14-31.4 156.34-31.15 155.91-30.28 155.49-29.4 155.49-27.35L155.49-27.35 155.49-8.2Q155.49-6.85 155.44-5.6 155.39-4.35 155.29-3.7L155.29-3.7Q156.09-3.8 157.31-3.83 158.54-3.85 159.04-3.85L159.04-3.85 159.04 0 144.69 0 144.69-3.3Q145.84-3.35 146.62-3.6 147.39-3.85 147.81-4.75 148.24-5.65 148.24-7.65L148.24-7.65 148.24-26.8Q148.24-28.15 148.31-29.4 148.39-30.65 148.44-31.3L148.44-31.3Q147.64-31.25 146.44-31.23 145.24-31.2 144.69-31.15L144.69-31.15 144.69-35 159.04-35ZM193.19-23.7L189.89-23.7Q189.89-26.4 189.14-28.18 188.39-29.95 187.01-30.83 185.64-31.7 183.74-31.65L183.74-31.65 181.34-31.65 181.34-8.2Q181.34-6.85 181.29-5.6 181.24-4.35 181.14-3.7L181.14-3.7Q181.99-3.8 183.31-3.83 184.64-3.85 185.14-3.85L185.14-3.85 185.14 0 170.54 0 170.54-3.3Q171.69-3.35 172.46-3.6 173.24-3.85 173.66-4.75 174.09-5.65 174.09-7.65L174.09-7.65 174.09-31.6 171.79-31.6Q168.94-31.55 167.29-29.65 165.64-27.75 165.64-23.7L165.64-23.7 162.34-23.7 162.59-35 192.89-35 193.19-23.7ZM216.84-12.05L213.53-12.05Q213.53-14.15 212.88-15.08 212.23-16 211.11-16.25 209.98-16.5 208.63-16.45L208.63-16.45 207.34-16.4 207.34-8.2Q207.34-6.85 207.28-5.65 207.23-4.45 207.13-3.8L207.13-3.8 213.84-3.8Q215.34-3.8 216.74-4.48 218.13-5.15 219.03-6.73 219.94-8.3 219.94-11L219.94-11 223.19-11 222.94 0 196.53 0 196.53-3.3Q197.69-3.35 198.46-3.6 199.23-3.85 199.66-4.75 200.09-5.65 200.09-7.65L200.09-7.65 200.09-26.8Q200.09-28.15 200.16-29.4 200.23-30.65 200.28-31.3L200.28-31.3Q199.48-31.25 198.28-31.23 197.09-31.2 196.53-31.15L196.53-31.15 196.53-35 221.53-35 221.84-25.3 218.53-25.3Q218.53-28.05 217.59-29.45 216.63-30.85 215.24-31.33 213.84-31.8 212.48-31.75L212.48-31.75 210.69-31.7Q209.63-31.7 208.88-31.43 208.13-31.15 207.73-30.23 207.34-29.3 207.34-27.35L207.34-27.35 207.34-19.85 213.19-19.85 212.98-24.2 216.84-24.2 216.84-12.05ZM256.78-23.8L253.53-23.8Q252.88-27.95 250.76-30.05 248.63-32.15 245.13-32.2L245.13-32.2Q242.53-32.2 240.58-31 238.63-29.8 237.36-27.8 236.08-25.8 235.46-23.25 234.83-20.7 234.83-18L234.83-18Q234.83-13.7 236.06-10.38 237.28-7.05 239.63-5.15 241.98-3.25 245.33-3.25L245.33-3.25Q248.48-3.25 251.58-4.88 254.68-6.5 256.78-9.4L256.78-9.4 259.18-7.2Q256.73-3.85 254.03-2.13 251.33-0.4 248.76 0.2 246.18 0.8 244.13 0.8L244.13 0.8Q240.28 0.8 237.13-0.58 233.98-1.95 231.71-4.38 229.43-6.8 228.21-10.03 226.98-13.25 226.98-17L226.98-17Q226.98-20.4 228.08-23.75 229.18-27.1 231.36-29.83 233.53-32.55 236.83-34.18 240.13-35.8 244.48-35.8L244.48-35.8Q246.43-35.8 248.76-35.18 251.08-34.55 253.13-33.35L253.13-33.35 252.93-35.45 256.78-35.45 256.78-23.8ZM276.48 0L262.13 0 262.13-3.3Q263.28-3.35 264.06-3.6 264.83-3.85 265.25-4.75 265.68-5.65 265.68-7.65L265.68-7.65 265.68-26.8Q265.68-28.15 265.75-29.4 265.83-30.65 265.88-31.3L265.88-31.3Q265.08-31.25 263.88-31.23 262.68-31.2 262.13-31.15L262.13-31.15 262.13-35 276.48-35 276.48-31.7Q275.38-31.65 274.58-31.4 273.78-31.15 273.36-30.28 272.93-29.4 272.93-27.35L272.93-27.35 272.93-19.55 286.68-19.55 286.68-26.8Q286.68-28.15 286.73-29.4 286.78-30.65 286.88-31.3L286.88-31.3Q286.08-31.25 284.88-31.23 283.68-31.2 283.13-31.15L283.13-31.15 283.13-35 297.48-35 297.48-31.7Q296.38-31.65 295.58-31.4 294.78-31.15 294.36-30.28 293.93-29.4 293.93-27.35L293.93-27.35 293.93-8.2Q293.93-6.85 293.88-5.6 293.83-4.35 293.73-3.7L293.73-3.7Q294.53-3.8 295.75-3.83 296.98-3.85 297.48-3.85L297.48-3.85 297.48 0 283.13 0 283.13-3.3Q284.28-3.35 285.06-3.6 285.83-3.85 286.25-4.75 286.68-5.65 286.68-7.65L286.68-7.65 286.68-15.75 272.93-15.6 272.93-8.2Q272.93-6.85 272.88-5.6 272.83-4.35 272.73-3.7L272.73-3.7Q273.53-3.8 274.75-3.83 275.98-3.85 276.48-3.85L276.48-3.85 276.48 0Z" opacity="1" transform="matrix(1,0,0,1,0,0)" fill="#000000" class="wordmark-text-0" data-fill-palette-color="primary" id="text-0"></path></svg></g></svg></g></svg></g></svg></g><g></g></svg></g></svg></g></svg></g></svg></g><defs></defs></svg><rect width="395.52" height="247.2" fill="none" stroke="none" visibility="hidden"></rect></g></svg></g></svg>